<svg width="14" height="14" viewBox="0 0 14 14" fill="none" xmlns="http://www.w3.org/2000/svg">
<path fill-rule="evenodd" clip-rule="evenodd" d="M9.69666 1.37515L2.09087 1.37523C1.96656 1.37523 1.86581 1.47603 1.86587 1.60034L1.87023 10.1502C1.87029 10.2744 1.97101 10.3751 2.09523 10.3751H9.70003C9.8243 10.3751 9.92503 10.2744 9.92503 10.1501V3.17574L9.92167 1.59967C9.92141 1.47559 9.82075 1.37514 9.69666 1.37515ZM11.275 3.85011V10.1501C11.275 11.02 10.5699 11.7251 9.70003 11.7251H4.07503V12.4001C4.07503 12.5244 4.17577 12.6251 4.30003 12.6251H11.9295C12.0538 12.6251 12.1545 12.5244 12.1545 12.4001V4.07511C12.1545 3.95084 12.0538 3.85011 11.9295 3.85011H11.275ZM2.72503 11.7251H2.09523C1.22569 11.7251 0.520669 11.0204 0.520226 10.1509L0.515869 1.60103C0.515426 0.730865 1.22071 0.0252265 2.09087 0.0252265L7.89473 0.0252266L9.6966 0.0251465C10.5652 0.0251079 11.2698 0.728226 11.2717 1.59679L11.2736 2.50011H11.9295C12.7993 2.50011 13.5045 3.20526 13.5045 4.07511V12.4001C13.5045 13.27 12.7993 13.9751 11.9295 13.9751H4.30003C3.43018 13.9751 2.72503 13.27 2.72503 12.4001V11.7251Z" fill="#1A2029"/>
<path fill-rule="evenodd" clip-rule="evenodd" d="M3.3999 4.07515C3.3999 3.70235 3.70211 3.40015 4.0749 3.40015H8.1249C8.49769 3.40015 8.7999 3.70235 8.7999 4.07515C8.7999 4.44794 8.49769 4.75015 8.1249 4.75015H4.0749C3.70211 4.75015 3.3999 4.44794 3.3999 4.07515Z" fill="#1A2029"/>
<path fill-rule="evenodd" clip-rule="evenodd" d="M3.3999 7.21895C3.3999 6.84615 3.70211 6.54395 4.0749 6.54395H7.0449C7.41769 6.54395 7.7199 6.84615 7.7199 7.21895C7.7199 7.59174 7.4177 7.89395 7.0449 7.89395H4.0749C3.70211 7.89395 3.3999 7.59174 3.3999 7.21895Z" fill="#1A2029"/>
</svg>
