<svg width="20" height="20" viewBox="0 0 20 20" fill="none" xmlns="http://www.w3.org/2000/svg">
<path d="M12.0195 3.38281C12.4139 3.38289 12.7332 3.70237 12.7334 4.09668C12.7334 4.49112 12.414 4.81047 12.0195 4.81055H5.61914C4.88278 4.81066 4.28542 5.4082 4.28516 6.14453V14.583C4.28516 15.6024 5.11243 16.4297 6.13184 16.4297H13.8115C14.8309 16.4296 15.6572 15.6024 15.6572 14.583V8.19238C15.6576 7.79821 15.9778 7.47852 16.3721 7.47852C16.7661 7.47881 17.0856 7.79839 17.0859 8.19238V14.583C17.0859 16.3913 15.6198 17.8573 13.8115 17.8574H6.13184C4.32346 17.8574 2.85742 16.3914 2.85742 14.583V6.14453C2.85769 4.61922 4.0938 3.38293 5.61914 3.38281H12.0195ZM13.6602 7.14453C14.0544 7.14476 14.374 7.46409 14.374 7.8584C14.3739 8.25261 14.0543 8.57302 13.6602 8.57324L10.9961 8.57227H6.3877C5.9933 8.57227 5.67398 8.25276 5.67383 7.8584C5.67384 7.46392 5.99321 7.14453 6.3877 7.14453H13.6602Z" fill="#FFFFFF"/>
<path d="M15.9759 3.57115C15.701 4.04734 15.0137 4.04734 14.7387 3.57115C14.4638 3.09496 14.8075 2.49972 15.3573 2.49972C15.9072 2.49972 16.2508 3.09496 15.9759 3.57115Z" fill="#FFFFFF"/>
<path d="M17.4044 5.71373C17.1294 6.18992 16.4421 6.18992 16.1672 5.71373C15.8923 5.23754 16.2359 4.6423 16.7858 4.6423C17.3356 4.6423 17.6793 5.23754 17.4044 5.71373Z" fill="#FFFFFF"/>
<path d="M14.5472 5.71373C14.2723 6.18992 13.5849 6.18992 13.31 5.71373C13.0351 5.23754 13.3787 4.6423 13.9286 4.6423C14.4785 4.6423 14.8221 5.23754 14.5472 5.71373Z" fill="#FFFFFF"/>
</svg>