<svg width="16" height="16" viewBox="0 0 16 16" fill="none" xmlns="http://www.w3.org/2000/svg">
<g id="polish_ic">
<rect id="Rectangle 6" x="2.33606" y="2.33594" width="11.3281" height="11.3281" rx="2.34375" stroke="#1A2029" stroke-width="1.17188"/>
<g id="pic">
<path id="Star 5" d="M7.02506 4.60828C6.94774 4.39933 6.65221 4.39933 6.57489 4.60828L6.08202 5.94025C6.05771 6.00594 6.00592 6.05773 5.94022 6.08204L4.60826 6.57492C4.39931 6.65223 4.39931 6.94777 4.60826 7.02508L5.94022 7.51796C6.00592 7.54226 6.05771 7.59406 6.08202 7.65975L6.57489 8.99172C6.65221 9.20067 6.94774 9.20067 7.02506 8.99172L7.51793 7.65975C7.54224 7.59406 7.59404 7.54226 7.65973 7.51796L8.99169 7.02508C9.20064 6.94777 9.20064 6.65223 8.99169 6.57492L7.65973 6.08204C7.59404 6.05773 7.54224 6.00594 7.51793 5.94025L7.02506 4.60828Z" fill="#1A2029"/>
<path id="Star 6" d="M9.62506 8.20838C9.54774 7.99943 9.25221 7.99943 9.17489 8.20838L8.84407 9.1024C8.81977 9.16809 8.76797 9.21989 8.70228 9.2442L7.80826 9.57501C7.59931 9.65233 7.59931 9.94786 7.80826 10.0252L8.70228 10.356C8.76797 10.3803 8.81977 10.4321 8.84407 10.4978L9.17489 11.3918C9.25221 11.6008 9.54774 11.6008 9.62506 11.3918L9.95588 10.4978C9.98019 10.4321 10.032 10.3803 10.0977 10.356L10.9917 10.0252C11.2006 9.94786 11.2006 9.65233 10.9917 9.57501L10.0977 9.2442C10.032 9.21989 9.98019 9.16809 9.95588 9.1024L9.62506 8.20838Z" fill="#1A2029"/>
</g>
</g>
</svg>
