<svg width="16" height="16" viewBox="0 0 16 16" fill="none" xmlns="http://www.w3.org/2000/svg">
<path fill-rule="evenodd" clip-rule="evenodd" d="M9.6 3.5C9.32386 3.5 9.1 3.72386 9.1 4C9.1 4.27614 9.32386 4.5 9.6 4.5H11.6C12.4284 4.5 13.1 5.17157 13.1 6V7.6C13.1 8.42843 12.4284 9.1 11.6 9.1H2.80699L5.15343 6.75355C5.3487 6.55829 5.3487 6.24171 5.15343 6.04645C4.95817 5.85118 4.64159 5.85118 4.44633 6.04645L1.95343 8.53934C1.69712 8.79565 1.55296 9.12164 1.52095 9.45634C1.50732 9.50184 1.5 9.55006 1.5 9.6C1.5 9.64994 1.50732 9.69816 1.52095 9.74367C1.55296 10.0784 1.69712 10.4043 1.95343 10.6607L4.44633 13.1536C4.64159 13.3488 4.95817 13.3488 5.15343 13.1536C5.3487 12.9583 5.3487 12.6417 5.15343 12.4464L2.80699 10.1H11.6C12.9807 10.1 14.1 8.98071 14.1 7.6V6C14.1 4.61929 12.9807 3.5 11.6 3.5H9.6Z" fill="#A4A8AD"/>
</svg>
