<svg width="28" height="28" viewBox="0 0 28 28" fill="none" xmlns="http://www.w3.org/2000/svg">
  <path
    d="M0 14C0 6.26801 6.26801 0 14 0C21.732 0 28 6.26801 28 14C28 21.732 21.732 28 14 28C6.26801 28 0 21.732 0 14Z"
    fill="#FC5D1E" />
  <path
    d="M24.1071 11.0724C24.2489 11.0859 24.3781 11.1604 24.4606 11.2765C24.5552 11.4098 24.5495 11.6445 24.5377 12.1137L24.4699 14.7955C24.4543 15.4176 24.4463 15.7291 24.3217 15.8647C24.2138 15.9821 24.0555 16.0404 23.8972 16.0199C23.7147 15.9961 23.5091 15.7623 23.0971 15.2963L23.0631 15.2575L22.6442 15.9832C22.3723 16.4542 21.77 16.6162 21.299 16.3443C20.828 16.0724 20.6664 15.4694 20.9384 14.9983L21.3573 14.2727L21.3076 14.2631C20.6978 14.1393 20.3919 14.0778 20.2801 13.9315C20.1831 13.8047 20.1545 13.6385 20.2022 13.4863C20.2574 13.3106 20.5232 13.1479 21.054 12.8234L23.3427 11.4237C23.7435 11.1787 23.9443 11.0569 24.1071 11.0724Z"
    fill="#FFF0DA" />
  <mask id="mask0_27_3594" style="mask-type:alpha" maskUnits="userSpaceOnUse" x="4" y="7" width="17"
    height="14">
    <path
      d="M19.6097 17.2883C19.9227 17.2883 20.1935 17.4086 20.4222 17.6494C20.663 17.8901 20.7833 18.1549 20.7833 18.4438C20.7833 18.7568 20.6389 19.0517 20.35 19.3285C20.0731 19.5934 19.706 19.804 19.2486 19.9605C18.8032 20.117 18.3458 20.1952 17.8764 20.1952C16.4079 20.1952 15.3426 19.3586 14.6806 17.6855C13.1639 19.5151 11.4727 20.4299 9.60695 20.4299C8.65602 20.4299 7.81343 20.2012 7.07917 19.7438C6.34491 19.2864 5.77315 18.6484 5.36389 17.8299C4.95463 17.0114 4.75 16.0665 4.75 14.9952C4.75 13.7554 5.01481 12.5517 5.54444 11.3841C6.08611 10.2165 6.84444 9.26558 7.81944 8.53132C8.80648 7.79706 9.92593 7.42993 11.1778 7.42993C12.4417 7.42993 13.4588 7.79706 14.2292 8.53132C14.9995 9.26558 15.5532 10.2165 15.8903 11.3841L17.1361 9.14521C17.2324 8.96465 17.3708 8.82021 17.5514 8.71188C17.744 8.59151 17.9486 8.53132 18.1653 8.53132C18.4903 8.53132 18.7671 8.64567 18.9958 8.87438C19.2245 9.10308 19.3389 9.37391 19.3389 9.68688C19.3389 9.89151 19.2667 10.1383 19.1222 10.4272C17.9065 12.6179 17.0037 14.1947 16.4139 15.1577C16.6907 16.9512 17.2144 17.848 17.9847 17.848C18.1292 17.848 18.2556 17.8239 18.3639 17.7758C18.4722 17.7276 18.6167 17.6554 18.7972 17.5591C18.9176 17.4869 19.05 17.4267 19.1944 17.3785C19.3389 17.3184 19.4773 17.2883 19.6097 17.2883ZM7.09722 14.9952C7.09722 15.9702 7.31991 16.7285 7.76528 17.2702C8.21065 17.8119 8.82454 18.0827 9.60695 18.0827C10.3051 18.0827 10.9431 17.8781 11.5208 17.4688C12.0986 17.0596 12.6463 16.5059 13.1639 15.8077C13.4167 15.4586 13.6875 15.0614 13.9764 14.616L13.8861 13.5508C13.8019 12.3952 13.5431 11.4804 13.1097 10.8063C12.6764 10.1202 12.0204 9.77715 11.1417 9.77715C10.3954 9.77715 9.70926 10.0239 9.08333 10.5174C8.46944 11.011 7.98194 11.661 7.62083 12.4674C7.27176 13.2739 7.09722 14.1165 7.09722 14.9952Z"
      fill="#FFF0DA" />
  </mask>
  <g mask="url(#mask0_27_3594)">
    <rect x="4.67969" y="5.91968" width="16.9313" height="16.9313" fill="#FFF0DA" />
    <path
      d="M14.6484 17.7161C15.3313 16.8366 15.7251 16.2775 16.4224 15.1392L18.3398 17.7161L16.4224 21.7161L14.6484 17.7161Z"
      fill="url(#paint0_linear_27_3594)" />
    <path
      d="M11.6699 10.8299L13.959 14.6433C14.7749 13.3326 15.2108 12.6117 15.8979 11.3688L14.6285 6.40107L11.6699 10.8299Z"
      fill="url(#paint1_linear_27_3594)" />
  </g>
  <path
    d="M0 14C0 6.26801 6.26801 0 14 0C21.732 0 28 6.26801 28 14C28 21.732 21.732 28 14 28C6.26801 28 0 21.732 0 14Z"
    fill="#FC5D1E" />
  <path
    d="M23.808 11.1119C23.9514 11.1255 24.082 11.2009 24.1655 11.3183C24.2613 11.453 24.2552 11.6903 24.2432 12.1647L24.1755 14.8752C24.1597 15.5033 24.1513 15.8175 24.0257 15.9546C23.9166 16.0734 23.7562 16.1325 23.5963 16.1117C23.4118 16.0878 23.2037 15.8517 22.7872 15.3807L22.7531 15.3417L22.3297 16.0751C22.0548 16.5507 21.4464 16.714 20.9706 16.4392C20.4949 16.1645 20.332 15.556 20.6065 15.0802L21.0299 14.3468L20.9791 14.3367C20.363 14.2116 20.0544 14.1494 19.9414 14.0016C19.8435 13.8735 19.8144 13.705 19.8627 13.5512C19.9187 13.3738 20.1866 13.2094 20.7227 12.8817L23.0362 11.4678C23.441 11.2203 23.6435 11.0963 23.808 11.1119Z"
    fill="#FFF0DA" />
  <path
    d="M10.7446 7.43262C12.0216 7.43262 13.0493 7.80356 13.8277 8.54544C14.606 9.28733 15.1655 10.2481 15.506 11.4278L16.7648 9.16575C16.8621 8.98332 17.002 8.83727 17.1844 8.72781C17.379 8.60621 17.5858 8.54544 17.8047 8.54544C18.1331 8.54546 18.4128 8.66098 18.6439 8.89204C18.8749 9.12312 18.9905 9.3968 18.9905 9.71301C18.9905 9.91977 18.9174 10.1691 18.7715 10.4609C17.5431 12.6744 16.631 14.2677 16.035 15.2407C16.3147 17.0528 16.8439 17.9589 17.6222 17.9589C17.7682 17.9589 17.896 17.9346 18.0054 17.886C18.1149 17.8373 18.2608 17.7643 18.4432 17.667C18.5648 17.5941 18.6986 17.5333 18.8445 17.4847C18.9905 17.4238 19.1304 17.3933 19.2642 17.3933C19.5804 17.3933 19.8541 17.515 20.0851 17.7582C20.3284 18.0014 20.4499 18.269 20.4499 18.5609C20.4499 18.8771 20.304 19.1752 20.0121 19.4549C19.7324 19.7225 19.3614 19.9352 18.8993 20.0933C18.4493 20.2515 17.9871 20.3305 17.5127 20.3305C16.029 20.3304 14.9526 19.4853 14.2837 17.7948C12.7513 19.6434 11.0425 20.5677 9.15738 20.5677C8.1966 20.5677 7.34532 20.3365 6.60344 19.8744C5.86157 19.4122 5.28382 18.7677 4.87031 17.9407C4.45679 17.1137 4.25 16.1589 4.25 15.0765C4.25 13.8238 4.51754 12.6076 5.05267 11.4278C5.59997 10.2481 6.36624 9.28733 7.35137 8.54544C8.34866 7.80357 9.47974 7.43262 10.7446 7.43262ZM10.7081 9.8042C9.95413 9.8042 9.26083 10.0535 8.62842 10.5521C8.00816 11.0508 7.51556 11.7077 7.1507 12.5225C6.79802 13.3374 6.62158 14.1887 6.62158 15.0765C6.62158 16.0616 6.84663 16.8279 7.29663 17.3752C7.74662 17.9224 8.36687 18.1961 9.15738 18.1961C9.86278 18.1961 10.5074 17.9893 11.0912 17.5758C11.675 17.1623 12.2283 16.6028 12.7513 15.8975C13.0067 15.5448 13.2804 15.1434 13.5722 14.6934L13.4811 13.6171C13.3959 12.4495 13.1344 11.5252 12.6965 10.8441C12.2587 10.1509 11.5959 9.80421 10.7081 9.8042Z"
    fill="#FFF0DA" />
  <path
    d="M16.0447 15.2237C16.0413 15.2293 16.038 15.235 16.0346 15.2405C16.3144 17.0527 16.8435 17.9587 17.6218 17.9587C17.7398 17.9587 17.8458 17.9424 17.9399 17.9106L16.813 20.2615C15.6855 20.029 14.8422 19.2069 14.2834 17.7947C14.2734 17.8067 14.2629 17.8184 14.2529 17.8304L14.251 17.8258C14.9409 16.9372 15.3388 16.3721 16.0434 15.2219L16.0447 15.2237Z"
    fill="url(#paint2_linear_27_3594)" />
  <path
    d="M13.5546 14.7208L13.5542 14.7202C13.5586 14.7133 13.5633 14.7065 13.5678 14.6996C13.5634 14.7066 13.559 14.7137 13.5546 14.7208ZM13.1408 8.0249C13.3879 8.1713 13.6168 8.34459 13.8274 8.54528C14.6056 9.28702 15.1649 10.2476 15.5055 11.427C14.8207 12.665 14.3819 13.3913 13.5718 14.693L13.4808 13.6169C13.3957 12.4493 13.1341 11.5251 12.6963 10.844C12.4623 10.4736 12.1642 10.2021 11.8018 10.0296L13.1408 8.0249Z"
    fill="url(#paint3_linear_27_3594)" />
  <defs>
    <linearGradient id="paint0_linear_27_3594" x1="15.5288" y1="16.6381" x2="17.4937" y2="18.6134"
      gradientUnits="userSpaceOnUse">
      <stop stop-color="#EDD2AB" />
      <stop offset="1" stop-color="#FFF0DA" />
    </linearGradient>
    <linearGradient id="paint1_linear_27_3594" x1="15.5793" y1="12.9357" x2="12.5055" y2="11.0299"
      gradientUnits="userSpaceOnUse">
      <stop stop-color="#EDD6B4" />
      <stop offset="1" stop-color="#FFF0DA" />
    </linearGradient>
    <linearGradient id="paint2_linear_27_3594" x1="15.1405" y1="16.7365" x2="17.1258" y2="18.7323"
      gradientUnits="userSpaceOnUse">
      <stop stop-color="#EDD2AB" />
      <stop offset="1" stop-color="#FFF0DA" />
    </linearGradient>
    <linearGradient id="paint3_linear_27_3594" x1="15.1918" y1="12.9954" x2="12.0861" y2="11.0698"
      gradientUnits="userSpaceOnUse">
      <stop stop-color="#EDD6B4" />
      <stop offset="1" stop-color="#FFF0DA" />
    </linearGradient>
  </defs>
</svg>