<svg width="14" height="12" viewBox="0 0 14 12" fill="none" xmlns="http://www.w3.org/2000/svg">
  <path fill-rule="evenodd" clip-rule="evenodd"
    d="M7.29739 0.478181C6.72118 0.148629 6.13711 0.264867 5.67248 0.502032C5.2249 0.730497 4.81009 1.10581 4.46087 1.45557C4.28827 1.62844 4.12054 1.80676 3.96555 1.97154L3.94881 1.98934C3.7862 2.1622 3.63968 2.3175 3.5033 2.45139C3.36509 2.58708 3.25472 2.68328 3.16769 2.74422C3.12743 2.77241 3.10222 2.78584 3.09047 2.79157C2.92278 2.80328 2.77742 2.80831 2.63909 2.8131L2.63907 2.8131L2.60362 2.81433C2.45326 2.81958 2.29398 2.82549 2.14204 2.84463C1.79825 2.88795 1.49503 2.99858 1.17169 3.26504L1.54891 3.72278L1.17169 3.26504C0.734364 3.62545 0.602037 4.20861 0.547806 4.64457C0.49661 5.05613 0.498897 5.50587 0.500719 5.86401L0.50129 5.99979L0.500719 6.13558C0.498897 6.49371 0.49661 6.94345 0.547806 7.35502C0.602037 7.79098 0.734364 8.37414 1.17169 8.73454L1.54891 8.27681L1.17169 8.73454C1.49503 9.00101 1.79825 9.11164 2.14204 9.15495C2.29398 9.1741 2.45326 9.18001 2.60362 9.18526L2.63908 9.18649L2.63914 9.18649C2.77747 9.19128 2.92283 9.19631 3.09052 9.20802C3.10226 9.21375 3.12749 9.22717 3.16779 9.25538C3.25482 9.31629 3.36519 9.41245 3.5034 9.54807C3.63977 9.68189 3.78629 9.83712 3.9489 10.0099L3.96564 10.0277L3.96568 10.0277C4.12066 10.1924 4.28838 10.3707 4.46096 10.5434C4.81019 10.893 5.22499 11.2682 5.67255 11.4966C6.13712 11.7336 6.72107 11.8499 7.29722 11.5206C7.32279 11.506 7.34725 11.4895 7.37039 11.4713C7.65959 11.2439 7.85226 10.9213 7.98756 10.5789C8.12419 10.2331 8.21899 9.8246 8.28689 9.37506C8.42249 8.47724 8.4631 7.32677 8.4631 5.99979C8.4631 4.67281 8.42249 3.52213 8.28689 2.62409C8.219 2.17445 8.1242 1.76581 7.98758 1.41999C7.8523 1.07755 7.65963 0.754819 7.37039 0.527373C7.3473 0.50921 7.3229 0.492768 7.29739 0.478181ZM3.20761 3.98625C3.47418 3.96652 3.69949 3.83677 3.85595 3.72722C4.02379 3.6097 4.18941 3.45945 4.34398 3.3077C4.50037 3.15416 4.66342 2.98104 4.82286 2.81155L4.83519 2.79845C4.99343 2.63022 5.15035 2.4634 5.31006 2.30344C5.64622 1.96675 5.94945 1.70795 6.21805 1.57084C6.43746 1.45885 6.5646 1.45915 6.66103 1.49967C6.71907 1.55784 6.79458 1.66613 6.87152 1.86089C6.9624 2.09095 7.03978 2.40213 7.10034 2.80325C7.22166 3.60675 7.2631 4.68143 7.2631 5.99979C7.2631 7.31816 7.22166 8.3926 7.10035 9.19586C7.03978 9.59686 6.96241 9.9079 6.87154 10.1379C6.79464 10.3325 6.71917 10.4407 6.66111 10.4989C6.56462 10.5394 6.43739 10.5397 6.21798 10.4277C5.94935 10.2906 5.64612 10.0319 5.30997 9.69538C5.15027 9.53551 4.99335 9.36877 4.83512 9.20062L4.82277 9.1875C4.66333 9.01808 4.50028 8.84505 4.34388 8.69157C4.18931 8.53989 4.02369 8.3897 3.85585 8.27223C3.69937 8.16272 3.47411 8.03306 3.20761 8.01334L3.20723 8.01331C3.00312 7.99833 2.82752 7.99227 2.68247 7.98727L2.68244 7.98727L2.64548 7.98599C2.48715 7.98046 2.38151 7.97564 2.29206 7.96437C2.15308 7.94686 2.06768 7.91795 1.93486 7.80849C1.88314 7.76586 1.78857 7.60841 1.73863 7.20689C1.69771 6.87794 1.69924 6.51142 1.70078 6.14362L1.70129 6.00115V5.99843L1.70078 5.85597C1.69924 5.48817 1.69771 5.12164 1.73863 4.7927C1.78857 4.39118 1.88314 4.23372 1.93486 4.1911C2.06768 4.08164 2.15308 4.05273 2.29206 4.03522C2.38151 4.02395 2.48715 4.01912 2.64548 4.0136L2.68244 4.01232C2.82749 4.00732 3.0031 4.00126 3.20723 3.98628L3.20761 3.98625ZM11.7003 1.97904C11.9873 1.81338 12.3542 1.91174 12.5199 2.19872C13.8776 4.5507 13.8814 7.44302 12.5189 9.79905C12.353 10.0859 11.986 10.184 11.6991 10.0181C11.4123 9.8522 11.3142 9.48518 11.4801 9.19832C12.6272 7.2147 12.6244 4.78014 11.4806 2.79864C11.315 2.51165 11.4133 2.14471 11.7003 1.97904ZM9.70143 3.47699C9.98901 3.31236 10.3556 3.41204 10.5202 3.69962C11.3373 5.12697 11.3378 6.8721 10.5198 8.2965C10.3548 8.58386 9.98808 8.68304 9.70072 8.51802C9.41336 8.353 9.31418 7.98628 9.4792 7.69892C10.0843 6.64515 10.0848 5.35439 9.4788 4.29579C9.31417 4.00821 9.41385 3.64162 9.70143 3.47699Z"
    fill="currentColor" />
</svg>