<svg width="18" height="18" viewBox="0 0 18 18" fill="none" xmlns="http://www.w3.org/2000/svg">
<g id="summary_ic">
<g id="pic">
<path id="Union" fill-rule="evenodd" clip-rule="evenodd" d="M3.375 10.8C3.99632 10.8 4.5 10.2963 4.5 9.67499C4.5 9.05367 3.99632 8.54999 3.375 8.54999C2.75368 8.54999 2.25 9.05367 2.25 9.67499C2.25 10.2963 2.75368 10.8 3.375 10.8ZM7.425 8.99999C7.05221 8.99999 6.75 9.3022 6.75 9.67499C6.75 10.0478 7.05221 10.35 7.425 10.35H15.075C15.4478 10.35 15.75 10.0478 15.75 9.67499C15.75 9.3022 15.4478 8.99999 15.075 8.99999H7.425Z" fill="#1A2029"/>
<path id="Union_2" fill-rule="evenodd" clip-rule="evenodd" d="M3.375 6.29999C3.99632 6.29999 4.5 5.79631 4.5 5.17499C4.5 4.55367 3.99632 4.04999 3.375 4.04999C2.75368 4.04999 2.25 4.55367 2.25 5.17499C2.25 5.79631 2.75368 6.29999 3.375 6.29999ZM7.425 4.49999C7.05221 4.49999 6.75 4.8022 6.75 5.17499C6.75 5.54778 7.05221 5.84999 7.425 5.84999H10.575C10.9478 5.84999 11.25 5.54778 11.25 5.17499C11.25 4.8022 10.9478 4.49999 10.575 4.49999H7.425Z" fill="#1A2029"/>
<path id="Union_3" fill-rule="evenodd" clip-rule="evenodd" d="M3.375 15.3C3.99632 15.3 4.5 14.7963 4.5 14.175C4.5 13.5537 3.99632 13.05 3.375 13.05C2.75368 13.05 2.25 13.5537 2.25 14.175C2.25 14.7963 2.75368 15.3 3.375 15.3ZM7.425 13.5C7.05221 13.5 6.75 13.8022 6.75 14.175C6.75 14.5478 7.05221 14.85 7.425 14.85H15.075C15.4478 14.85 15.75 14.5478 15.75 14.175C15.75 13.8022 15.4478 13.5 15.075 13.5H7.425Z" fill="#1A2029"/>
</g>
<path id="Star 4" d="M15.1032 2.4843C15.0162 2.24924 14.6838 2.24924 14.5968 2.4843L14.0423 3.98277C14.015 4.05667 13.9567 4.11494 13.8828 4.14229L12.3843 4.69677C12.1492 4.78375 12.1492 5.11623 12.3843 5.20321L13.8828 5.75769C13.9567 5.78504 14.015 5.8433 14.0423 5.91721L14.5968 7.41567C14.6838 7.65074 15.0162 7.65074 15.1032 7.41567L15.6577 5.91721C15.685 5.8433 15.7433 5.78504 15.8172 5.75769L17.3157 5.20321C17.5508 5.11623 17.5508 4.78375 17.3157 4.69677L15.8172 4.14229C15.7433 4.11494 15.685 4.05667 15.6577 3.98277L15.1032 2.4843Z" fill="#1A2029"/>
</g>
</svg>
