<svg width="16" height="16" viewBox="0 0 16 16" fill="none" xmlns="http://www.w3.org/2000/svg">
<g id="picking_ic">
<g id="pic">
<path id="Union" fill-rule="evenodd" clip-rule="evenodd" d="M3.34847 4.56092C3.76126 4.34386 4.50379 4.03677 5.37713 4.03677C6.25047 4.03677 6.993 4.34386 7.40579 4.56092C7.43151 4.57444 7.4728 4.61576 7.47597 4.70378C7.47594 4.70742 7.47592 4.71107 7.47592 4.71472V11.8574C6.94956 11.6367 6.21802 11.419 5.37713 11.419C4.53258 11.419 3.80008 11.6387 3.2781 11.8575V4.71466C3.2781 4.61913 3.32171 4.57499 3.34847 4.56092ZM8.04545 13.197C7.86352 13.2428 7.6645 13.2245 7.49112 13.1283C7.10489 12.9139 6.31728 12.558 5.37713 12.558C4.6923 12.558 4.08636 12.7469 3.65403 12.9356C3.30882 13.0863 2.9381 13.0312 2.6624 12.8701C2.38376 12.7074 2.13904 12.3959 2.13904 11.9834V4.71466C2.13904 4.26334 2.3611 3.79317 2.81834 3.55274C3.31945 3.28924 4.2496 2.89771 5.37713 2.89771C6.50466 2.89771 7.43481 3.28924 7.93592 3.55274C7.97412 3.57282 8.01067 3.59451 8.0456 3.61766C8.08041 3.59459 8.11686 3.57298 8.15493 3.55295C8.48437 3.3797 8.9916 3.15513 9.61437 3.01899C9.92166 2.95182 10.2252 3.14647 10.2924 3.45375C10.3596 3.76104 10.1649 4.0646 9.85763 4.13177C9.36048 4.24046 8.95074 4.42141 8.68512 4.5611C8.65958 4.57453 8.61835 4.61557 8.61518 4.70378C8.61521 4.70741 8.61522 4.71103 8.61522 4.71465V11.8575C9.14158 11.6368 9.87312 11.419 10.714 11.419C11.5586 11.419 12.2911 11.6387 12.813 11.8576V7.10187C12.813 6.78733 13.068 6.53234 13.3826 6.53234C13.6971 6.53234 13.9521 6.78733 13.9521 7.10187V11.9835C13.9521 12.396 13.7074 12.7074 13.4287 12.8702C13.153 13.0312 12.7823 13.0863 12.4371 12.9356C12.0048 12.7469 11.3988 12.5581 10.714 12.5581C9.77387 12.5581 8.98625 12.9139 8.60003 13.1283C8.42657 13.2246 8.22745 13.2429 8.04545 13.197Z" fill="#1A2029"/>
<path id="Star 4" d="M13.1949 1.7876C13.1215 1.58926 12.841 1.58926 12.7676 1.7876L12.2997 3.05192C12.2767 3.11428 12.2275 3.16345 12.1651 3.18652L10.9008 3.65436C10.7025 3.72775 10.7025 4.00828 10.9008 4.08167L12.1651 4.54952C12.2275 4.57259 12.2767 4.62175 12.2997 4.68411L12.7676 5.94844C12.841 6.14678 13.1215 6.14678 13.1949 5.94844L13.6627 4.68411C13.6858 4.62175 13.735 4.57259 13.7973 4.54952L15.0616 4.08167C15.26 4.00828 15.26 3.72775 15.0616 3.65436L13.7973 3.18652C13.735 3.16345 13.6858 3.11428 13.6627 3.05192L13.1949 1.7876Z" fill="#1A2029"/>
</g>
</g>
</svg>
