<svg width="16" height="16" viewBox="0 0 16 16" fill="none" xmlns="http://www.w3.org/2000/svg">
  <path fill-rule="evenodd" clip-rule="evenodd"
    d="M1.79454 7.25C2.16505 4.15183 4.80204 1.75 8 1.75C10.3124 1.75 12.3325 3.00546 13.4143 4.87554C13.6217 5.23409 14.0805 5.35661 14.4391 5.1492C14.7976 4.9418 14.9201 4.483 14.7127 4.12446C13.3738 1.80993 10.8695 0.25 8 0.25C3.71979 0.25 0.25 3.71979 0.25 8C0.25 8.41421 0.585786 8.75 1 8.75H4.5C4.91421 8.75 5.25 8.41421 5.25 8C5.25 7.58579 4.91421 7.25 4.5 7.25H1.79454ZM10.75 8C10.75 7.58579 11.0858 7.25 11.5 7.25H15C15.4142 7.25 15.75 7.58579 15.75 8C15.75 12.2802 12.2802 15.75 8 15.75C5.13046 15.75 2.62615 14.1901 1.28727 11.8755C1.07986 11.517 1.20239 11.0582 1.56093 10.8508C1.91948 10.6434 2.37827 10.7659 2.58568 11.1245C3.66747 12.9945 5.68756 14.25 8 14.25C11.198 14.25 13.8349 11.8482 14.2055 8.75H11.5C11.0858 8.75 10.75 8.41421 10.75 8Z"
    fill="currentColor" />
</svg>