<svg width="12" height="14" viewBox="0 0 12 14" fill="none" xmlns="http://www.w3.org/2000/svg">
<path fill-rule="evenodd" clip-rule="evenodd" d="M1.35039 2.99889C1.35039 2.22572 1.97675 1.59968 2.74898 1.60039C3.31998 1.60092 3.90329 1.60163 4.48482 1.60234C5.30681 1.60334 6.12526 1.60434 6.90039 1.60481V2.86985C6.90039 4.14745 8.0159 5.12212 9.22474 5.12552H10.65L10.65 10.9992C10.65 11.7724 10.0232 12.3992 9.25003 12.3992H2.75039C1.97719 12.3992 1.35039 11.7724 1.35039 10.9992V2.99889ZM9.82615 3.92552L8.10039 2.20267V2.86985C8.10039 3.41811 8.61051 3.92341 9.22743 3.92552H9.82615ZM2.75008 0.400392C1.31374 0.399066 0.150391 1.56348 0.150391 2.99889V10.9992C0.150391 12.4351 1.31445 13.5992 2.75039 13.5992H9.25003C10.686 13.5992 11.85 12.4351 11.85 10.9992L11.85 4.91391C11.85 4.4891 11.6811 4.08172 11.3805 3.78159L8.46673 0.872765C8.16673 0.57327 7.76024 0.405155 7.33652 0.405016C6.43614 0.404719 5.46449 0.403534 4.48721 0.402342L4.48715 0.402342C3.90551 0.401633 3.32188 0.400921 2.75008 0.400392ZM5.21132 6.63354C5.42346 6.37897 5.38907 6.00064 5.1345 5.7885C4.87994 5.57636 4.5016 5.61075 4.28946 5.86532L3.03946 7.36532C2.85403 7.58783 2.85403 7.91103 3.03946 8.13354L4.28946 9.63354C4.5016 9.88811 4.87994 9.9225 5.1345 9.71036C5.38907 9.49822 5.42346 9.11989 5.21132 8.86532L4.28142 7.74943L5.21132 6.63354ZM6.86648 5.7885C6.61191 6.00064 6.57751 6.37897 6.78965 6.63354L7.71956 7.74943L6.78965 8.86532C6.57751 9.11989 6.61191 9.49822 6.86648 9.71036C7.12104 9.9225 7.49938 9.88811 7.71152 9.63354L8.96152 8.13354C9.14694 7.91103 9.14694 7.58783 8.96152 7.36532L7.71152 5.86532C7.49938 5.61075 7.12104 5.57636 6.86648 5.7885Z" fill="#1A2029"/>
</svg>
