<svg width="16" height="18" viewBox="0 0 16 18" fill="none" xmlns="http://www.w3.org/2000/svg">
<path fill-rule="evenodd" clip-rule="evenodd" d="M14.7963 5.67143L14.3064 4.82857C13.8919 4.11539 12.9734 3.86935 12.2531 4.27857C11.9102 4.47883 11.501 4.53565 11.1159 4.43649C10.7307 4.33734 10.4011 4.09035 10.1998 3.75C10.0703 3.53367 10.0007 3.28727 9.99806 3.03571C10.0097 2.63241 9.85627 2.24159 9.57261 1.95229C9.28895 1.66299 8.89926 1.49983 8.49231 1.5H7.50529C7.1066 1.5 6.72434 1.65751 6.4431 1.93768C6.16187 2.21785 6.00483 2.59759 6.00675 2.99286C5.99493 3.80896 5.32423 4.46437 4.501 4.46429C4.24728 4.46167 3.99875 4.39268 3.78055 4.26429C3.06022 3.85507 2.14172 4.1011 1.72726 4.81429L1.20132 5.67143C0.787363 6.38372 1.03214 7.29379 1.74887 7.70714C2.21475 7.97381 2.50175 8.46665 2.50175 9C2.50175 9.53335 2.21475 10.0262 1.74887 10.2929C1.03305 10.7034 0.788006 11.6113 1.20132 12.3214L1.69844 13.1714C1.89263 13.5188 2.21845 13.7752 2.60381 13.8838C2.98916 13.9924 3.40227 13.9442 3.75173 13.75C4.09526 13.5513 4.50464 13.4968 4.88886 13.5988C5.27308 13.7007 5.60031 13.9506 5.79782 14.2929C5.92732 14.5092 5.99691 14.7556 5.99954 15.0071C5.99954 15.8316 6.67369 16.5 7.50529 16.5H8.49231C9.32111 16.5 9.99409 15.836 9.99806 15.0143C9.99613 14.6178 10.1542 14.2369 10.437 13.9566C10.7198 13.6762 11.1039 13.5195 11.5038 13.5214C11.7569 13.5281 12.0044 13.5969 12.2243 13.7214C12.9427 14.1318 13.8606 13.8892 14.2775 13.1786L14.7963 12.3214C14.9971 11.9797 15.0522 11.5728 14.9494 11.1907C14.8466 10.8086 14.5945 10.4829 14.2487 10.2857C13.903 10.0885 13.6508 9.76281 13.5481 9.38072C13.4453 8.99863 13.5004 8.59168 13.7012 8.25C13.8318 8.02399 14.0208 7.83659 14.2487 7.70714C14.9612 7.29401 15.2054 6.38926 14.7963 5.67857V5.67143Z" fill="#F5F5F5" stroke="#1A2029" stroke-width="1.5" stroke-linecap="round" stroke-linejoin="round"/>
<path d="M10 9C10 10.1046 9.10457 11 8 11C6.89543 11 6 10.1046 6 9C6 7.89543 6.89543 7 8 7C9.10457 7 10 7.89543 10 9Z" fill="#F5F5F5" stroke="#1A2029" stroke-width="1.5"/>
</svg>
