<svg width="20" height="20" viewBox="0 0 20 20" fill="none" xmlns="http://www.w3.org/2000/svg">
<path fill-rule="evenodd" clip-rule="evenodd" d="M3.25 10C3.25 6.27208 6.27208 3.25 10 3.25C10.7903 3.25 11.5473 3.38549 12.2501 3.63389C12.6406 3.77193 13.0691 3.56724 13.2071 3.1767C13.3452 2.78616 13.1405 2.35767 12.7499 2.21963C11.8888 1.91528 10.9629 1.75 10 1.75C5.44365 1.75 1.75 5.44365 1.75 10C1.75 14.5563 5.44365 18.25 10 18.25C14.5563 18.25 18.25 14.5563 18.25 10C18.25 9.03709 18.0847 8.11117 17.7804 7.25006C17.6423 6.85953 17.2138 6.65483 16.8233 6.79287C16.4328 6.9309 16.2281 7.3594 16.3661 7.74993C16.6145 8.45272 16.75 9.20973 16.75 10C16.75 13.7279 13.7279 16.75 10 16.75C6.27208 16.75 3.25 13.7279 3.25 10ZM8.25 8.00002C8.25 7.5858 7.91421 7.25002 7.5 7.25002C7.08579 7.25002 6.75 7.5858 6.75 8.00002V11C6.75 11.4142 7.08579 11.75 7.5 11.75C7.91421 11.75 8.25 11.4142 8.25 11V8.00002ZM12.5 7.24994C12.9142 7.24994 13.25 7.58573 13.25 7.99994V10.9999C13.25 11.4142 12.9142 11.7499 12.5 11.7499C12.0858 11.7499 11.75 11.4142 11.75 10.9999V7.99994C11.75 7.58573 12.0858 7.24994 12.5 7.24994ZM15.48 2.22601C15.5513 2.03322 15.824 2.03322 15.8953 2.22601L16.175 2.98186C16.2996 3.31858 16.5651 3.58407 16.9018 3.70867L17.6577 3.98836C17.8504 4.0597 17.8504 4.33237 17.6577 4.40371L16.9018 4.6834C16.5651 4.808 16.2996 5.07348 16.175 5.41021L15.8953 6.16606C15.824 6.35884 15.5513 6.35884 15.48 6.16606L15.2003 5.41021C15.0757 5.07348 14.8102 4.808 14.4735 4.6834L13.7176 4.40371C13.5248 4.33237 13.5248 4.0597 13.7176 3.98836L14.4735 3.70867C14.8102 3.58407 15.0757 3.31858 15.2003 2.98186L15.48 2.22601Z" fill="url(#paint0_linear_445_24687)"/>
<defs>
<linearGradient id="paint0_linear_445_24687" x1="1.55961" y1="1.54024" x2="21.8329" y2="16.4392" gradientUnits="userSpaceOnUse">
<stop stop-color="#6039FF"/>
<stop offset="1" stop-color="#43BAFF"/>
</linearGradient>
</defs>
</svg>
