<svg width="12" height="12" viewBox="0 0 12 12" fill="none" xmlns="http://www.w3.org/2000/svg">
  <mask id="path-1-inside-1_1935_8322" fill="white">
    <path fill-rule="evenodd" clip-rule="evenodd"
      d="M8.39309 0.483876C7.8073 -0.10191 6.85755 -0.10191 6.27177 0.483876L4.05847 2.69717C3.88967 2.86597 3.66607 2.96881 3.42806 2.98712L1.36851 3.14555C0.516678 3.21107 0.133986 4.24559 0.738105 4.84971L3.02006 7.13166L0.545184 9.60654C0.310869 9.84085 0.310869 10.2208 0.545184 10.4551C0.779499 10.6894 1.1594 10.6894 1.39371 10.4551L3.86859 7.98019L6.14995 10.2616C6.75407 10.8657 7.78859 10.483 7.85412 9.63115L8.01254 7.57161C8.03085 7.3336 8.1337 7.10999 8.30249 6.9412L10.5158 4.7279C11.1016 4.14211 11.1016 3.19236 10.5158 2.60658L8.39309 0.483876Z" />
  </mask>
  <path
    d="M6.27177 0.483876L5.42324 -0.364652L6.27177 0.483876ZM4.05847 2.69717L4.907 3.5457L4.05847 2.69717ZM3.42806 2.98712L3.52009 4.18359H3.52009L3.42806 2.98712ZM1.36851 3.14555L1.46055 4.34201L1.46055 4.34201L1.36851 3.14555ZM0.738105 4.84971L1.58663 4.00118L0.738105 4.84971ZM3.02006 7.13166L3.86859 7.98019L4.71711 7.13166L3.86859 6.28313L3.02006 7.13166ZM0.545184 10.4551L-0.303344 11.3036L-0.303342 11.3036L0.545184 10.4551ZM1.39371 10.4551L2.24224 11.3036L1.39371 10.4551ZM3.86859 7.98019L4.71711 7.13166L3.86859 6.28313L3.02006 7.13166L3.86859 7.98019ZM6.14995 10.2616L5.30143 11.1101L6.14995 10.2616ZM7.85412 9.63115L6.65765 9.53911L7.85412 9.63115ZM8.01254 7.57161L9.20901 7.66364L9.20901 7.66364L8.01254 7.57161ZM8.30249 6.9412L9.15102 7.78972L8.30249 6.9412ZM10.5158 4.7279L9.66726 3.87937L10.5158 4.7279ZM7.12029 1.3324C7.23745 1.21525 7.4274 1.21525 7.54456 1.3324L9.24161 -0.364652C8.1872 -1.41907 6.47765 -1.41907 5.42324 -0.364652L7.12029 1.3324ZM4.907 3.5457L7.12029 1.3324L5.42324 -0.364652L3.20994 1.84865L4.907 3.5457ZM3.52009 4.18359C4.04371 4.14331 4.53565 3.91705 4.907 3.5457L3.20994 1.84865C3.2437 1.81489 3.28842 1.79432 3.33602 1.79066L3.52009 4.18359ZM1.46055 4.34201L3.52009 4.18359L3.33602 1.79066L1.27648 1.94908L1.46055 4.34201ZM1.58663 4.00118C1.60674 4.02128 1.63028 4.05957 1.63966 4.10756C1.64797 4.15004 1.64259 4.1855 1.63279 4.21199C1.62299 4.23848 1.60399 4.26891 1.57004 4.29575C1.53169 4.32609 1.4889 4.33983 1.46055 4.34201L1.27648 1.94908C-0.597564 2.09324 -1.43948 4.36918 -0.110423 5.69824L1.58663 4.00118ZM3.86859 6.28313L1.58663 4.00118L-0.110423 5.69824L2.17153 7.98019L3.86859 6.28313ZM1.39371 10.4551L3.86859 7.98019L2.17153 6.28313L-0.303344 8.75801L1.39371 10.4551ZM1.39371 9.60654C1.62803 9.84085 1.62803 10.2208 1.39371 10.4551L-0.303344 8.75801C-1.00629 9.46095 -1.00629 10.6006 -0.303344 11.3036L1.39371 9.60654ZM0.545185 9.60654C0.779501 9.37222 1.1594 9.37222 1.39371 9.60653L-0.303342 11.3036C0.3996 12.0065 1.5393 12.0065 2.24224 11.3036L0.545185 9.60654ZM3.02006 7.13166L0.545185 9.60654L2.24224 11.3036L4.71711 8.82872L3.02006 7.13166ZM6.99848 9.41303L4.71711 7.13166L3.02006 8.82872L5.30143 11.1101L6.99848 9.41303ZM6.65765 9.53911C6.65983 9.51077 6.67357 9.46798 6.70391 9.42962C6.73075 9.39567 6.76118 9.37668 6.78767 9.36688C6.81416 9.35708 6.84963 9.3517 6.8921 9.36C6.9401 9.36938 6.97838 9.39293 6.99848 9.41303L5.30143 11.1101C6.63049 12.4391 8.90642 11.5972 9.05058 9.72319L6.65765 9.53911ZM6.81608 7.47957L6.65765 9.53911L9.05058 9.72319L9.20901 7.66364L6.81608 7.47957ZM7.45396 6.09267C7.08261 6.46402 6.85635 6.95595 6.81608 7.47957L9.20901 7.66364C9.20535 7.71124 9.18478 7.75596 9.15102 7.78972L7.45396 6.09267ZM9.66726 3.87937L7.45396 6.09267L9.15102 7.78972L11.3643 5.57643L9.66726 3.87937ZM9.66726 3.45511C9.78442 3.57226 9.78442 3.76221 9.66726 3.87937L11.3643 5.57643C12.4187 4.52201 12.4187 2.81247 11.3643 1.75805L9.66726 3.45511ZM7.54456 1.3324L9.66726 3.45511L11.3643 1.75805L9.24161 -0.364652L7.54456 1.3324Z"
    fill="currentColor" mask="url(#path-1-inside-1_1935_8322)" />
</svg>