<svg width="18" height="18" viewBox="0 0 18 18" fill="none" xmlns="http://www.w3.org/2000/svg">
<g id="picking_ic">
<g id="pic">
<path id="Union" fill-rule="evenodd" clip-rule="evenodd" d="M3.4334 4.97121C3.92263 4.71396 4.80267 4.35 5.83774 4.35C6.8728 4.35 7.75284 4.71396 8.24208 4.97121C8.27296 4.98745 8.32278 5.0375 8.32537 5.14465C8.32536 5.14758 8.32535 5.15052 8.32535 5.15345V13.619C7.70151 13.3574 6.83443 13.0993 5.83774 13.0993C4.83679 13.0993 3.96865 13.3596 3.35 13.619V5.15342C3.35 5.04021 3.40168 4.98789 3.4334 4.97121ZM9.00036 15.2065C8.78469 15.2609 8.54875 15.2392 8.3432 15.1251C7.88546 14.871 6.95199 14.4493 5.83774 14.4493C5.02608 14.4493 4.30793 14.6731 3.79554 14.8967C3.38641 15.0753 2.94704 15.01 2.62028 14.8192C2.29004 14.6263 2 14.2572 2 13.7682V5.15342C2 4.61854 2.26318 4.06129 2.80509 3.77633C3.399 3.46404 4.50141 3 5.83774 3C7.17407 3 8.27647 3.46404 8.87038 3.77633C8.91567 3.80015 8.959 3.82586 9.0004 3.8533C9.0417 3.82594 9.08493 3.80029 9.1301 3.77654C9.52054 3.5712 10.1217 3.30505 10.8598 3.1437C11.224 3.06408 11.5838 3.29478 11.6634 3.65897C11.743 4.02316 11.5123 4.38294 11.1481 4.46255C10.5589 4.59136 10.0733 4.80582 9.75848 4.97138C9.7278 4.98751 9.67804 5.03723 9.67545 5.14465C9.67547 5.14757 9.67548 5.1505 9.67548 5.15342V13.619C10.2993 13.3575 11.1664 13.0993 12.1631 13.0993C13.164 13.0993 14.0322 13.3597 14.6508 13.6191V7.98267C14.6508 7.60988 14.953 7.30767 15.3258 7.30767C15.6986 7.30767 16.0008 7.60988 16.0008 7.98267V13.7683C16.0008 14.2572 15.7108 14.6263 15.3805 14.8192C15.0538 15.0101 14.6144 15.0754 14.2053 14.8968C13.6929 14.6731 12.9747 14.4493 12.1631 14.4493C11.0488 14.4493 10.1154 14.8711 9.65762 15.1251C9.45204 15.2393 9.21606 15.2609 9.00036 15.2065Z" fill="#1A2029"/>
<path id="Star 4" d="M15.1032 1.68432C15.0162 1.44925 14.6838 1.44925 14.5968 1.68432L14.0423 3.18278C14.015 3.25668 13.9567 3.31495 13.8828 3.3423L12.3843 3.89678C12.1492 3.98376 12.1492 4.31624 12.3843 4.40322L13.8828 4.9577C13.9567 4.98505 14.015 5.04332 14.0423 5.11722L14.5968 6.61568C14.6838 6.85075 15.0162 6.85075 15.1032 6.61568L15.6577 5.11722C15.685 5.04332 15.7433 4.98505 15.8172 4.9577L17.3157 4.40322C17.5508 4.31624 17.5508 3.98376 17.3157 3.89678L15.8172 3.3423C15.7433 3.31495 15.685 3.25668 15.6577 3.18278L15.1032 1.68432Z" fill="#1A2029"/>
</g>
</g>
</svg>
