<svg t="1725096647062" class="icon" viewBox="0 0 1024 1024" version="1.1" xmlns="http://www.w3.org/2000/svg" p-id="7483" width="200" height="200"><path d="M810.666667 128H213.333333c-46.933333 0-85.333333 38.4-85.333333 85.333333v597.333334c0 46.933333 38.4 85.333333 85.333333 85.333333h597.333334c46.933333 0 85.333333-38.4 85.333333-85.333333V213.333333c0-46.933333-38.4-85.333333-85.333333-85.333333z m0 640c0 23.466667-19.2 42.666667-42.666667 42.666667H256c-23.466667 0-42.666667-19.2-42.666667-42.666667V256c0-23.466667 19.2-42.666667 42.666667-42.666667h512c23.466667 0 42.666667 19.2 42.666667 42.666667v512z" fill="#1A2029" p-id="7484"></path><path d="M716.8 388.266667c0-2.133333-2.133333-2.133333-2.133333-4.266667l-89.6-89.6c-8.533333-8.533333-21.333333-8.533333-29.866667 0l-29.866667 29.866667c-8.533333 8.533333-8.533333 21.333333 0 29.866666l29.866667 29.866667H320c-12.8 0-21.333333 8.533333-21.333333 21.333333v42.666667c0 12.8 8.533333 21.333333 21.333333 21.333333h384c12.8 0 21.333333-8.533333 21.333333-21.333333v-42.666667c0-6.4-4.266667-12.8-8.533333-17.066666zM704 554.666667H320c-12.8 0-21.333333 8.533333-21.333333 21.333333v42.666667c0 8.533333 4.266667 14.933333 10.666666 17.066666l87.466667 87.466667c8.533333 8.533333 21.333333 8.533333 29.866667 0l29.866666-29.866667c8.533333-8.533333 8.533333-21.333333 0-29.866666L433.066667 640H704c12.8 0 21.333333-8.533333 21.333333-21.333333v-42.666667c0-12.8-8.533333-21.333333-21.333333-21.333333z" fill="#1A2029" p-id="7485"></path></svg>