<svg width="28" height="28" viewBox="0 0 28 28" fill="none" xmlns="http://www.w3.org/2000/svg">
<path d="M17.6565 7.77415C17.431 7.16472 16.569 7.16472 16.3435 7.77415L15.4285 10.2469C15.2259 10.7943 14.7943 11.2259 14.2469 11.4285L11.7742 12.3435C11.1647 12.569 11.1647 13.431 11.7742 13.6565L14.2469 14.5715C14.7943 14.7741 15.2259 15.2057 15.4285 15.7531L16.3435 18.2258C16.569 18.8353 17.431 18.8353 17.6565 18.2258L18.5715 15.7531C18.7741 15.2057 19.2057 14.7741 19.7531 14.5715L22.2258 13.6565C22.8353 13.431 22.8353 12.569 22.2258 12.3435L19.7531 11.4285C19.2057 11.2259 18.7741 10.7943 18.5715 10.2469L17.6565 7.77415Z" fill="#1A66FF"/>
<path opacity="0.4" d="M9.46893 7.26725C9.30785 6.83194 8.69215 6.83194 8.53107 7.26725L8.3493 7.75849C8.24802 8.03221 8.03221 8.24802 7.75849 8.3493L7.26725 8.53107C6.83194 8.69215 6.83194 9.30785 7.26725 9.46893L7.75849 9.6507C8.0322 9.75198 8.24802 9.96779 8.3493 10.2415L8.53107 10.7327C8.69215 11.1681 9.30785 11.1681 9.46893 10.7327L9.6507 10.2415C9.75198 9.96779 9.96779 9.75198 10.2415 9.6507L10.7327 9.46893C11.1681 9.30785 11.1681 8.69215 10.7327 8.53107L10.2415 8.3493C9.96779 8.24802 9.75198 8.03221 9.6507 7.75849L9.46893 7.26725Z" fill="#1A66FF"/>
<path opacity="0.7" d="M9.46893 15.2673C9.30785 14.8319 8.69215 14.8319 8.53107 15.2673L8.23878 16.0572C8.03621 16.6046 7.60459 17.0362 7.05715 17.2388L6.26725 17.5311C5.83194 17.6922 5.83194 18.3078 6.26725 18.4689L7.05715 18.7612C7.60459 18.9638 8.03621 19.3954 8.23878 19.9428L8.53107 20.7327C8.69215 21.1681 9.30785 21.1681 9.46893 20.7327L9.76122 19.9428C9.96379 19.3954 10.3954 18.9638 10.9428 18.7612L11.7327 18.4689C12.1681 18.3078 12.1681 17.6922 11.7327 17.5311L10.9428 17.2388C10.3954 17.0362 9.96379 16.6046 9.76122 16.0572L9.46893 15.2673Z" fill="#1A66FF"/>
</svg>
