<svg width="14" height="10" viewBox="0 0 14 10" fill="none" xmlns="http://www.w3.org/2000/svg">
<g clip-path="url(#clip0_1497_7142)">
<mask id="mask0_1497_7142" style="mask-type:luminance" maskUnits="userSpaceOnUse" x="0" y="0" width="14" height="10">
<path d="M13.4323 0.535713H0.575195V9.46429H13.4323V0.535713Z" fill="white"/>
</mask>
<g mask="url(#mask0_1497_7142)">
<path fill-rule="evenodd" clip-rule="evenodd" d="M3.95817 0.990721C4.22857 0.717892 4.67006 0.714366 4.94481 0.982841C5.21998 1.25171 5.22378 1.69153 4.95328 1.96505L2.7539 4.18903C2.75186 4.19091 2.75006 4.19303 2.74804 4.19495L2.71798 4.22537C2.60417 4.34779 2.53465 4.51152 2.53465 4.69148C2.53465 4.87494 2.60692 5.04158 2.72472 5.16472L2.74299 5.18311C2.74668 5.18671 2.75042 5.19025 2.75419 5.19376L4.47796 6.9304C4.60172 7.0384 4.76431 7.10391 4.94247 7.10391C5.1133 7.10391 5.26983 7.04369 5.39154 6.94349L5.51567 6.81879C5.69201 6.63681 5.79826 6.40153 5.79826 6.14475C5.79826 6.06323 5.78751 5.98387 5.7672 5.90768C5.75745 5.88377 5.7497 5.85887 5.744 5.83324C5.7435 5.83195 5.74307 5.83066 5.74258 5.82937C5.74278 5.82927 5.74291 5.82917 5.74307 5.82908C5.73645 5.79776 5.73298 5.76529 5.73298 5.73199V5.64912C5.73298 5.39045 5.94384 5.18073 6.20395 5.18073H7.91032C8.17043 5.18073 8.38129 5.39045 8.38129 5.64912V5.73199C8.38129 5.86459 8.32591 5.98427 8.2369 6.06949L5.45263 8.84905C5.44436 8.85808 5.43579 8.86691 5.42692 8.87554C5.15247 9.14389 4.7113 9.14048 4.44111 8.8679L1.28022 5.67921L1.27976 5.67967L1.13968 5.53741L1.13185 5.52951L0.771736 5.16373C0.509076 4.897 0.50977 4.47015 0.773296 4.20424L3.95817 0.990721Z" fill="#00E7E7"/>
<path fill-rule="evenodd" clip-rule="evenodd" d="M10.2479 8.86756C9.99337 9.14038 9.57788 9.14395 9.31926 8.87546C9.0603 8.60661 9.05674 8.16677 9.31131 7.89325L11.3813 5.66925C11.3832 5.66736 11.3849 5.66528 11.3869 5.66336L11.4151 5.63294C11.5222 5.51052 11.5877 5.34679 11.5877 5.16683C11.5877 4.98337 11.5197 4.81673 11.4088 4.69358L11.3916 4.67516C11.3881 4.67159 11.3846 4.66806 11.3811 4.66455L9.75868 2.9279C9.64217 2.8199 9.48914 2.75438 9.3215 2.75438C9.16072 2.75438 9.01342 2.81462 8.89883 2.91479L8.78203 3.03953C8.78199 3.03951 8.78203 3.03956 8.78203 3.03953C8.61604 3.22154 8.51605 3.45678 8.51605 3.71355C8.51605 3.79509 8.52617 3.87444 8.54526 3.95063C8.55442 3.97454 8.56177 3.9994 8.56712 4.02507C8.56758 4.02636 8.56801 4.02765 8.5684 4.02893C8.56827 4.02903 8.5681 4.02913 8.56797 4.02923C8.5742 4.06055 8.5775 4.09302 8.5775 4.12632V4.20919C8.5775 4.46786 8.37907 4.67755 8.13423 4.67755H6.52824C6.28339 4.67755 6.08496 4.46786 6.08496 4.20919V4.12632C6.08496 3.99372 6.13708 3.87404 6.22085 3.78881L8.84133 1.00925C8.84915 1.00024 8.85719 0.991404 8.86557 0.982743C9.12383 0.714398 9.53908 0.71783 9.79336 0.990412L12.7683 4.1791L12.7687 4.17864L12.9006 4.3209L12.908 4.3288L13.2469 4.69458C13.4941 4.96131 13.4934 5.38816 13.2454 5.65403L10.2479 8.86756Z" fill="#00BFFF"/>
</g>
</g>
<defs>
<clipPath id="clip0_1497_7142">
<rect width="12.8571" height="8.92857" fill="white" transform="translate(0.575195 0.535713)"/>
</clipPath>
</defs>
</svg>
