<svg width="20" height="20" viewBox="0 0 20 20" fill="none" xmlns="http://www.w3.org/2000/svg">
<path d="M12.1445 2.80664C12.5598 2.80665 12.8965 3.14335 12.8965 3.55859C12.8964 3.97377 12.5597 4.31053 12.1445 4.31055H5.4082C4.63281 4.31055 4.00391 4.93945 4.00391 5.71484V14.5977C4.00417 15.6703 4.87362 16.5398 5.94629 16.54H14.0312C15.1041 16.54 15.9743 15.6705 15.9746 14.5977V7.87012C15.9747 7.4551 16.3106 7.11841 16.7256 7.11816C17.1408 7.11818 17.4774 7.45496 17.4775 7.87012V14.5977C17.4773 16.501 15.9346 18.0439 14.0312 18.0439H5.94629C4.04311 18.0437 2.50026 16.5008 2.5 14.5977V5.71484C2.5 4.10895 3.80231 2.80664 5.4082 2.80664H12.1445ZM13.8711 6.76367C14.286 6.76382 14.6227 7.10072 14.623 7.51562C14.623 7.93078 14.2862 8.26743 13.8711 8.26758H6.21582C5.80067 8.26745 5.46387 7.9308 5.46387 7.51562C5.46413 7.10067 5.80084 6.7638 6.21582 6.76367H13.8711Z" fill="#2B2B2B"/>
<path d="M17.1617 3.48043C17.663 3.76983 17.663 4.49333 17.1617 4.78273L15.47 5.75945C14.9687 6.04885 14.3422 5.6871 14.3422 5.1083L14.3422 3.15486C14.3422 2.57606 14.9687 2.21431 15.47 2.50371L17.1617 3.48043Z" fill="#2B2B2B"/>
</svg>