<svg width="70" height="70" viewBox="0 0 70 70" fill="none" xmlns="http://www.w3.org/2000/svg">
<path d="M62.8628 26.0488C63.2945 26.0897 63.6872 26.3165 63.9385 26.6698C64.2269 27.0753 64.2087 27.7899 64.1728 29.2182L63.9678 37.3751C63.9202 39.2668 63.896 40.2128 63.5172 40.6252C63.1888 40.9827 62.7073 41.1585 62.2259 41.0961C61.6705 41.024 61.0437 40.315 59.7903 38.8974L59.6878 38.7814L58.4148 40.9864C57.5877 42.4189 55.7559 42.9098 54.3233 42.0827C52.8908 41.2556 52.4 39.4238 53.227 37.9913L54.5004 35.7858L54.3476 35.755C52.4931 35.3784 51.5657 35.19 51.2256 34.7451C50.9308 34.3594 50.8419 33.8543 50.9874 33.3911C51.1552 32.8568 51.9626 32.3632 53.5772 31.3761L60.5387 27.1201C61.7577 26.3748 62.3675 26.0017 62.8628 26.0488Z" fill="#792200"/>
<path d="M23.5419 14.9766C27.3856 14.9766 30.4789 16.0931 32.8218 18.3261C35.1646 20.5591 36.8486 23.4511 37.8736 27.0019L41.6624 20.1932C41.9552 19.6441 42.3763 19.2045 42.9254 18.875C43.5111 18.509 44.1337 18.3261 44.7925 18.3261C45.7808 18.3261 46.6227 18.6739 47.3182 19.3693C48.0137 20.0649 48.3614 20.8886 48.3614 21.8404C48.3614 22.4627 48.1416 23.2131 47.7023 24.0916C44.005 30.7541 41.2595 35.5498 39.4657 38.4784C40.3077 43.9328 41.9003 46.6598 44.2431 46.6599C44.6824 46.6599 45.0671 46.587 45.3965 46.4405C45.726 46.2941 46.1652 46.0743 46.7142 45.7814C47.0802 45.5618 47.4829 45.3789 47.9222 45.2325C48.3615 45.0495 48.7826 44.9576 49.1853 44.9576C50.137 44.9576 50.9609 45.3238 51.6564 46.0559C52.3884 46.788 52.7541 47.5934 52.7542 48.4719C52.7542 49.4237 52.3151 50.3209 51.4365 51.1628C50.5946 51.9681 49.478 52.6086 48.087 53.0845C46.7325 53.5604 45.3413 53.7982 43.9136 53.7982C39.4476 53.7981 36.2079 51.2543 34.1945 46.1661C29.5821 51.7303 24.4386 54.5124 18.7645 54.5124C15.8726 54.5123 13.3103 53.8165 11.0773 52.4254C8.84437 51.0344 7.10537 49.0945 5.86073 46.6053C4.61609 44.116 3.99365 41.2421 3.99365 37.9841C3.99366 34.2136 4.79894 30.5528 6.40964 27.0019C8.05696 23.451 10.3634 20.5591 13.3286 18.3261C16.3303 16.0931 19.7348 14.9766 23.5419 14.9766ZM23.4322 22.1149C21.1627 22.1149 19.0759 22.8653 17.1724 24.3661C15.3054 25.867 13.8228 27.8442 12.7246 30.2969C11.663 32.7495 11.132 35.3118 11.1319 37.9841C11.1319 40.9492 11.8093 43.2557 13.1638 44.903C14.5182 46.5502 16.3852 47.374 18.7645 47.3741C20.8877 47.3741 22.828 46.7516 24.5852 45.507C26.3423 44.2624 28.0078 42.5783 29.5819 40.4551C30.3506 39.3936 31.1744 38.1856 32.053 36.8312L31.7785 33.5913C31.5223 30.077 30.735 27.295 29.4171 25.245C28.0993 23.1585 26.1045 22.1149 23.4322 22.1149Z" fill="#FF5C1C"/>
<path d="M39.4956 38.4272C39.4853 38.444 39.4756 38.4613 39.4654 38.4779C40.3073 43.9323 41.9 46.6594 44.2428 46.6595C44.5979 46.6595 44.9168 46.6104 45.2002 46.5147L41.8083 53.5906C38.4144 52.891 35.8762 50.4165 34.1942 46.1656C34.164 46.202 34.1327 46.2372 34.1025 46.2734L34.0967 46.2592C36.1734 43.5846 37.371 41.8838 39.4917 38.4219L39.4956 38.4272Z" fill="url(#paint0_linear_17160_167685)"/>
<path d="M32.0007 36.912L31.9992 36.9101C32.0127 36.8894 32.0267 36.869 32.0402 36.8482C32.027 36.8694 32.0139 36.8908 32.0007 36.912ZM30.7552 16.7578C31.4987 17.1985 32.1879 17.7201 32.8216 18.3241C35.164 20.5567 36.8474 23.4481 37.8725 26.998C35.8116 30.7242 34.4907 32.9104 32.0524 36.8282L31.7784 33.5893C31.5222 30.0751 30.7348 27.293 29.417 25.243C28.7129 24.1281 27.8154 23.3111 26.7246 22.7919L30.7552 16.7578Z" fill="url(#paint1_linear_17160_167685)"/>
<defs>
<linearGradient id="paint0_linear_17160_167685" x1="36.7009" y1="41.3477" x2="42.4967" y2="50.6958" gradientUnits="userSpaceOnUse">
<stop stop-color="#E64404"/>
<stop offset="1" stop-color="#FF5C1C"/>
</linearGradient>
<linearGradient id="paint1_linear_17160_167685" x1="36.9285" y1="31.7187" x2="27.5805" y2="25.9229" gradientUnits="userSpaceOnUse">
<stop stop-color="#F34500"/>
<stop offset="1" stop-color="#FF5C1C"/>
</linearGradient>
</defs>
</svg>
