<svg width="20" height="20" viewBox="0 0 20 20" fill="none" xmlns="http://www.w3.org/2000/svg">
<path d="M12.0195 3.38281C12.4138 3.38296 12.7332 3.70241 12.7334 4.09668C12.7334 4.49108 12.4139 4.8104 12.0195 4.81055H5.61914C4.88278 4.81066 4.28542 5.4082 4.28516 6.14453V14.583C4.28516 15.6024 5.11243 16.4297 6.13184 16.4297H13.8115C14.8308 16.4295 15.6572 15.6023 15.6572 14.583V8.19238C15.6576 7.79821 15.9778 7.47852 16.3721 7.47852C16.766 7.47888 17.0856 7.79844 17.0859 8.19238V14.583C17.0859 16.3913 15.6198 17.8573 13.8115 17.8574H6.13184C4.32346 17.8574 2.85742 16.3914 2.85742 14.583V6.14453C2.85769 4.61922 4.0938 3.38293 5.61914 3.38281H12.0195ZM13.6602 7.14453C14.0544 7.14483 14.374 7.46414 14.374 7.8584C14.3739 8.25257 14.0543 8.57294 13.6602 8.57324L10.9961 8.57227H6.3877C5.9933 8.57227 5.67398 8.25276 5.67383 7.8584C5.67384 7.46392 5.99321 7.14453 6.3877 7.14453H13.6602Z" fill="#2B2B2B"/>
<path d="M14.2856 2.85742V5.00028" stroke="#2B2B2B" stroke-width="1.42857" stroke-linecap="round"/>
<path d="M16.4285 2.85742V5.00028" stroke="#2B2B2B" stroke-width="1.42857" stroke-linecap="round"/>
</svg>