<svg width="35" height="35" viewBox="0 0 35 35" fill="none" xmlns="http://www.w3.org/2000/svg">
<path d="M31.4825 13.0477C31.6987 13.0682 31.8954 13.1818 32.0213 13.3587C32.1657 13.5618 32.1566 13.9197 32.1386 14.635L32.0359 18.7201C32.0121 19.6675 31.9999 20.1412 31.8102 20.3478C31.6458 20.5268 31.4046 20.6149 31.1635 20.5836C30.8854 20.5475 30.5715 20.1924 29.9438 19.4824L29.8925 19.4243L29.2549 20.5286C28.8407 21.2461 27.9233 21.4919 27.2058 21.0777C26.4884 20.6635 26.2426 19.7461 26.6568 19.0286L27.2945 17.9241L27.218 17.9087C26.2893 17.7201 25.8248 17.6257 25.6545 17.4029C25.5068 17.2098 25.4623 16.9568 25.5352 16.7248C25.6192 16.4573 26.0236 16.21 26.8322 15.7157L30.3186 13.5842C30.9291 13.211 31.2345 13.0241 31.4825 13.0477Z" fill="white"/>
<path d="M11.79 7.5C13.715 7.50001 15.2642 8.05917 16.4375 9.17749C17.6108 10.2958 18.4542 11.7441 18.9675 13.5225L20.865 10.1125C21.0117 9.83755 21.2226 9.61739 21.4976 9.45239C21.7909 9.2691 22.1026 9.17749 22.4326 9.17749C22.9276 9.17752 23.3492 9.35166 23.6975 9.69995C24.0458 10.0483 24.22 10.4608 24.22 10.9375C24.22 11.2492 24.1099 11.6249 23.8899 12.0649C22.0382 15.4016 20.6632 17.8034 19.7649 19.27C20.1866 22.0017 20.9842 23.3674 22.1575 23.3674C22.3775 23.3674 22.5701 23.3309 22.7351 23.2576C22.9001 23.1842 23.1201 23.0741 23.395 22.9275C23.5783 22.8175 23.78 22.7259 24 22.6526C24.22 22.5609 24.4309 22.5149 24.6326 22.5149C25.1092 22.5149 25.5218 22.6983 25.8701 23.0649C26.2367 23.4316 26.4199 23.835 26.4199 24.2749C26.4199 24.7516 26.2 25.2009 25.76 25.6226C25.3384 26.0259 24.7792 26.3466 24.0825 26.585C23.4042 26.8233 22.7074 26.9424 21.9924 26.9424C19.7558 26.9424 18.1333 25.6684 17.125 23.1201C14.815 25.9067 12.2391 27.3 9.39746 27.3C7.94915 27.3 6.66592 26.9515 5.54761 26.2549C4.4293 25.5582 3.55839 24.5867 2.93506 23.3401C2.31173 22.0934 2 20.6541 2 19.0225C2.00001 17.1341 2.4033 15.3008 3.20996 13.5225C4.03496 11.7441 5.19005 10.2958 6.67505 9.17749C8.17837 8.05917 9.88339 7.5 11.79 7.5ZM11.7351 11.075C10.5985 11.075 9.5534 11.4508 8.6001 12.2024C7.6651 12.9541 6.92256 13.9443 6.37256 15.1726C5.84092 16.4009 5.57496 17.6842 5.57495 19.0225C5.57495 20.5075 5.9142 21.6625 6.59253 22.4875C7.27085 23.3125 8.20583 23.7251 9.39746 23.7251C10.4608 23.7251 11.4325 23.4134 12.3125 22.79C13.1925 22.1667 14.0266 21.3233 14.8149 20.26C15.1999 19.7284 15.6125 19.1234 16.0525 18.4451L15.915 16.8225C15.7867 15.0625 15.3924 13.6692 14.7324 12.6426C14.0724 11.5976 13.0734 11.075 11.7351 11.075Z" fill="white"/>
<path d="M19.78 19.2449C19.7749 19.2533 19.77 19.2619 19.7649 19.2703C20.1866 22.0019 20.9842 23.3677 22.1575 23.3677C22.3353 23.3677 22.495 23.3431 22.637 23.2952L20.9382 26.8389C19.2385 26.4885 17.9674 25.2493 17.125 23.1204C17.1099 23.1386 17.0942 23.1562 17.0791 23.1743L17.0762 23.1672C18.1162 21.8278 18.716 20.976 19.7781 19.2422L19.78 19.2449Z" fill="white"/>
<path d="M16.0264 18.4861L16.0256 18.4851C16.0324 18.4747 16.0394 18.4645 16.0461 18.4541C16.0395 18.4647 16.033 18.4754 16.0264 18.4861ZM15.4026 8.39258C15.775 8.61326 16.1201 8.87449 16.4375 9.177C17.6106 10.2951 18.4537 11.7431 18.967 13.521C17.9349 15.3871 17.2734 16.482 16.0522 18.4441L15.915 16.822C15.7867 15.062 15.3924 13.6688 14.7324 12.6421C14.3798 12.0837 13.9303 11.6746 13.384 11.4146L15.4026 8.39258Z" fill="white"/>
</svg>
